HIERARCHY
ROOT pelvis
{
	OFFSET 0.000000 0.000000 0.924753
	CHANNELS 6 Xposition Yposition Zposition Xrotation Yrotation Zrotation
	JOINT spine
	{
		OFFSET 0.000000 0.000000 0.000000
		CHANNELS 6 Xposition Yposition Zposition Xrotation Yrotation Zrotation
		JOINT spine.001
		{
			OFFSET 0.000000 -0.014500 0.276682
			CHANNELS 3 Xrotation Yrotation Zrotation
			JOINT neck
			{
				OFFSET 0.000000 0.033765 0.274997
				CHANNELS 6 Xposition Yposition Zposition Xrotation Yrotation Zrotation
				JOINT face
				{
					OFFSET 0.000000 0.003762 0.215541
					CHANNELS 6 Xposition Yposition Zposition Xrotation Yrotation Zrotation
					End Site
					{
						OFFSET 0.000000 -0.037497 -0.008818
					}
				}
			}
			JOINT shoulder.L
			{
				OFFSET 0.000000 0.033765 0.274997
				CHANNELS 6 Xposition Yposition Zposition Yrotation Xrotation Zrotation
				JOINT upper_arm.L
				{
					OFFSET 0.180307 0.000000 0.000000
					CHANNELS 6 Xposition Yposition Zposition Xrotation Yrotation Zrotation
					JOINT forearm.L
					{
						OFFSET 0.298295 0.000132 0.001098
						CHANNELS 6 Xposition Yposition Zposition Xrotation Yrotation Zrotation
						End Site
						{
							OFFSET 0.260481 -0.004425 -0.001511
						}
					}
				}
			}
			JOINT shoulder.R
			{
				OFFSET 0.000000 0.033765 0.274997
				CHANNELS 6 Xposition Yposition Zposition Yrotation Xrotation Zrotation
				JOINT upper_arm.R
				{
					OFFSET -0.180307 0.000000 0.000000
					CHANNELS 6 Xposition Yposition Zposition Xrotation Yrotation Zrotation
					JOINT forearm.R
					{
						OFFSET -0.295075 0.000132 0.001098
						CHANNELS 6 Xposition Yposition Zposition Xrotation Yrotation Zrotation
						End Site
						{
							OFFSET -0.269439 -0.004582 -0.001512
						}
					}
				}
			}
		}
	}
	JOINT pelvis.L
	{
		OFFSET 0.000000 0.000000 0.000000
		CHANNELS 6 Xposition Yposition Zposition Yrotation Xrotation Zrotation
		End Site
		{
			OFFSET 0.105933 0.000000 0.000000
		}
	}
	JOINT pelvis.R
	{
		OFFSET 0.000000 0.000000 0.000000
		CHANNELS 6 Xposition Yposition Zposition Yrotation Xrotation Zrotation
		End Site
		{
			OFFSET -0.105933 0.000000 0.000000
		}
	}
	JOINT thigh.L
	{
		OFFSET 0.105933 0.000000 0.000000
		CHANNELS 6 Xposition Yposition Zposition Xrotation Yrotation Zrotation
		JOINT shin.L
		{
			OFFSET 0.022250 0.000000 -0.424548
			CHANNELS 6 Xposition Yposition Zposition Xrotation Yrotation Zrotation
			JOINT foot.L
			{
				OFFSET 0.021374 0.000000 -0.407838
				CHANNELS 3 Xrotation Yrotation Zrotation
				End Site
				{
					OFFSET 0.018740 -0.191071 -0.080234
				}
			}
			JOINT heel.02.L
			{
				OFFSET 0.021374 0.000000 -0.407838
				CHANNELS 3 Xrotation Yrotation Zrotation
				End Site
				{
					OFFSET 0.100182 0.039488 -0.086100
				}
			}
		}
	}
	JOINT thigh.R
	{
		OFFSET -0.105933 0.000000 0.000000
		CHANNELS 6 Xposition Yposition Zposition Xrotation Yrotation Zrotation
		JOINT shin.R
		{
			OFFSET -0.022137 0.000000 -0.422396
			CHANNELS 6 Xposition Yposition Zposition Xrotation Yrotation Zrotation
			JOINT foot.R
			{
				OFFSET -0.022337 0.000000 -0.426218
				CHANNELS 3 Xrotation Yrotation Zrotation
				End Site
				{
					OFFSET -0.019568 -0.199517 -0.083780
				}
			}
			JOINT heel.02.R
			{
				OFFSET -0.022337 0.000000 -0.426218
				CHANNELS 3 Xrotation Yrotation Zrotation
				End Site
				{
					OFFSET -0.104747 0.039488 -0.069588
				}
			}
		}
	}
}
MOTION
Frames: 9
Frame Time: 0.041667
0.041264 -0.014489 0.907156 -0.000000 0.000000 2.045194 0.000000 0.000000 0.000000 -8.925697 4.068833 0.533209 10.000038 -0.020941 -0.170291 -0.000000 0.033765 0.274997 11.663377 -2.703919 -6.759075 -0.000000 0.003762 0.215540 3.814854 -0.000000 -0.000003 0.000000 0.033765 0.274997 0.580458 0.000360 -0.071235 0.180307 -0.000000 -0.000000 21.373272 77.888014 -26.297318 0.298295 0.000132 0.001098 10.916916 29.808940 -38.265428 0.000000 0.033765 0.274996 0.634779 0.000432 -0.077958 -0.180307 0.000000 -0.000000 18.098488 -79.372611 21.750966 -0.295075 0.000132 0.001098 11.920552 -30.139419 41.163566 0.000000 0.000000 0.000000 3.084978 -0.000001 0.000020 0.000000 0.000000 0.000000 3.084978 -0.000000 0.000000 0.105780 -0.000000 -0.005701 5.146335 4.255989 0.078687 0.022250 -0.000000 -0.424548 -0.009706 -3.959284 -0.000842 -6.949408 -5.796403 10.209726 -13.353046 50.279560 37.006545 -0.105780 -0.000000 0.005701 3.151870 2.514164 -0.234135 -0.022137 -0.000000 -0.422396 4.526695 2.205667 -0.324216 -7.209440 5.924866 -10.351602 -18.926685 -49.178568 -42.875710 
0.041706 -0.014184 0.906267 -0.000000 0.000000 1.904727 0.000000 0.000000 0.000000 -8.996346 4.066830 0.535498 9.999977 -0.013757 -0.112026 -0.000000 0.033765 0.274997 12.030986 -2.693340 -7.777939 -0.000000 0.003762 0.215541 3.542329 0.000000 0.000000 -0.000000 0.033765 0.274997 0.627551 0.000421 -0.077071 0.180307 0.000000 0.000000 20.135895 77.927179 -24.777688 0.298295 0.000132 0.001098 11.194359 30.757045 -37.959067 -0.000000 0.033765 0.274996 0.681874 0.000498 -0.083750 -0.180307 0.000000 -0.000000 19.070727 -78.944303 23.076122 -0.295075 0.000132 0.001098 12.048323 -31.039989 40.353939 0.000000 -0.000000 -0.000000 3.522146 0.000005 -0.000169 0.000000 -0.000000 -0.000000 3.522147 -0.000000 -0.000000 0.105733 -0.000000 -0.006508 5.389700 4.102601 0.089651 0.022250 -0.000000 -0.424548 -0.461497 -3.569742 -0.038505 -6.261179 -5.834399 10.583971 -11.141541 48.890474 36.194740 -0.105733 -0.000000 0.006508 3.140566 2.361781 -0.229138 -0.022137 -0.000000 -0.422396 4.518012 2.431768 -0.332473 -6.875551 5.928986 -10.503913 -20.467263 -50.100104 -43.716619 
0.041989 -0.013919 0.905927 -0.000000 0.000000 1.816354 0.000000 0.000000 0.000000 -9.036795 4.069424 0.537301 9.999995 -0.012864 -0.104728 -0.000000 0.033765 0.274997 12.243259 -2.710253 -8.542625 -0.000000 0.003762 0.215540 3.350759 -0.000000 -0.000000 -0.000000 0.033765 0.274996 0.659178 0.000466 -0.080958 0.180307 -0.000000 -0.000000 18.896731 78.014687 -23.235521 0.298295 0.000132 0.001098 11.410257 31.414676 -37.830768 -0.000000 0.033765 0.274996 0.713502 0.000545 -0.087609 -0.180307 0.000000 -0.000000 19.759205 -78.594352 24.043547 -0.295075 0.000132 0.001098 12.172745 -31.716564 39.862015 -0.000000 -0.000000 0.000000 3.792758 -0.000002 0.000062 -0.000000 -0.000000 0.000000 3.792758 0.000000 0.000000 0.105701 -0.000000 -0.007007 5.562770 4.013665 0.096865 0.022250 -0.000000 -0.424548 -0.793882 -3.330191 -0.064586 -5.693724 -5.847187 10.861989 -9.626763 47.883816 35.659841 -0.105701 -0.000000 0.007007 3.124742 2.266547 -0.225396 -0.022137 -0.000000 -0.422396 4.523220 2.532920 -0.336833 -6.687602 5.958821 -10.645127 -21.479669 -50.674871 -44.228603 
0.042099 -0.013739 0.906073 -0.000000 0.000000 1.775745 0.000000 0.000000 0.000000 -9.047784 4.078676 0.538922 10.000065 -0.018659 -0.151626 0.000000 0.033765 0.274997 12.316140 -2.746344 -9.019033 0.000000 0.003762 0.215541 3.237443 0.000000 0.000002 -0.000000 0.033765 0.274997 0.664045 0.000473 -0.081465 0.180307 -0.000000 0.000000 17.735481 78.154125 -21.770309 0.298295 0.000132 0.001098 11.559265 31.747102 -37.894791 -0.000000 0.033765 0.274997 0.718404 0.000554 -0.088211 -0.180307 0.000000 -0.000000 20.149910 -78.340494 24.620021 -0.295075 0.000132 0.001098 12.287597 -32.123025 39.700478 0.000000 -0.000000 0.000000 3.880739 0.000001 -0.000027 0.000000 -0.000000 0.000000 3.880741 0.000000 0.000000 0.105690 -0.000000 -0.007169 5.657593 3.990450 0.099669 0.022250 -0.000000 -0.424548 -0.978834 -3.249194 -0.078944 -5.296114 -5.842015 11.031258 -8.807616 47.315377 35.368362 -0.105690 0.000000 0.007170 3.109117 2.232628 -0.223353 -0.022137 0.000000 -0.422396 4.538299 2.507413 -0.336951 -6.663847 6.010644 -10.758566 -21.830937 -50.860905 -44.331496 
0.042149 -0.013674 0.906253 -0.000000 0.000000 1.735322 -0.000000 0.000000 0.000000 -9.049891 4.090887 0.540614 9.999970 -0.027356 -0.222621 -0.000000 0.033765 0.274997 12.362524 -2.768999 -9.327142 0.000000 0.003762 0.215541 3.171328 -0.000000 -0.000001 -0.000000 0.033765 0.274996 0.645367 0.000446 -0.079260 0.180307 0.000000 0.000000 16.782419 78.308201 -20.557003 0.298295 0.000132 0.001098 11.656347 31.879013 -38.040510 -0.000000 0.033765 0.274996 0.699689 0.000524 -0.085947 -0.180307 -0.000000 0.000000 20.375139 -78.141865 24.976535 -0.295075 0.000132 0.001098 12.374950 -32.374765 39.652281 0.000000 -0.000000 0.000000 3.888623 -0.000004 0.000111 0.000000 -0.000000 0.000000 3.888592 -0.000000 -0.000000 0.105689 -0.000000 -0.007184 5.710979 3.994696 0.100398 0.022250 0.000000 -0.424548 -1.067512 -3.231472 -0.085933 -5.038135 -5.844311 11.153980 -8.394501 47.021440 35.219611 -0.105689 -0.000000 0.007184 3.099971 2.229379 -0.222606 -0.022137 -0.000000 -0.422396 4.549030 2.440540 -0.335106 -6.725537 6.056047 -10.821491 -21.828779 -50.849536 -44.246403 
0.042240 -0.013716 0.906237 -0.000000 0.000000 1.659870 0.000000 -0.000000 0.000000 -9.055860 4.098837 0.541882 9.999937 -0.035912 -0.292470 0.000000 0.033765 0.274997 12.428847 -2.760739 -9.515721 -0.000000 0.003762 0.215540 3.167767 0.000000 0.000001 0.000000 0.033765 0.274997 0.619432 0.000409 -0.076098 0.180307 0.000000 -0.000000 16.074142 78.449005 -19.649399 0.298295 0.000132 0.001098 11.713679 31.912232 -38.181529 0.000000 0.033765 0.274997 0.673756 0.000484 -0.082697 -0.180306 0.000000 -0.000000 20.578450 -77.965523 25.298782 -0.295075 0.000132 0.001098 12.424707 -32.565249 39.565763 0.000000 -0.000000 0.000000 3.897703 0.000000 -0.000001 0.000000 -0.000000 0.000000 3.897704 0.000000 0.000000 0.105688 -0.000000 -0.007201 5.753399 4.003012 0.100726 0.022250 -0.000000 -0.424548 -1.113215 -3.211458 -0.089419 -4.871596 -5.868227 11.280143 -8.148847 46.845218 35.132577 -0.105688 -0.000000 0.007201 3.093575 2.234420 -0.222282 -0.022137 -0.000000 -0.422396 4.551605 2.389746 -0.333284 -6.801731 6.075376 -10.826161 -21.748625 -50.799091 -44.157030 
0.042382 -0.013829 0.906151 -0.000000 0.000000 1.550666 0.000000 0.000000 0.000000 -9.066492 4.097729 0.542124 9.999821 -0.042151 -0.343352 -0.000000 0.033765 0.274997 12.484868 -2.732247 -9.568351 -0.000000 0.003762 0.215540 3.253783 0.000000 0.000000 -0.000000 0.033765 0.274997 0.600865 0.000387 -0.073898 0.180306 0.000000 0.000000 15.491040 78.574954 -18.901478 0.298295 0.000132 0.001098 11.744973 31.901901 -38.293824 -0.000000 0.033765 0.274996 0.655189 0.000459 -0.080496 -0.180307 0.000000 -0.000000 20.782929 -77.816837 25.611937 -0.295075 0.000132 0.001098 12.444719 -32.699107 39.459533 0.000000 -0.000000 -0.000000 3.909725 0.000002 -0.000066 0.000000 -0.000000 -0.000000 3.909725 -0.000000 0.000000 0.105687 -0.000000 -0.007223 5.793349 4.019303 0.100602 0.022250 -0.000000 -0.424548 -1.141560 -3.195189 -0.091534 -4.763029 -5.908083 11.413062 -7.999285 46.734856 35.074804 -0.105687 -0.000000 0.007223 3.082331 2.246347 -0.221794 -0.022137 0.000000 -0.422396 4.551652 2.350278 -0.331726 -6.871079 6.070529 -10.785985 -21.637297 -50.734266 -44.077909 
0.042535 -0.013973 0.906159 -0.000000 0.000000 1.432137 0.000000 0.000000 0.000000 -9.081250 4.088320 0.541413 9.999787 -0.044545 -0.362895 -0.000000 0.033765 0.274997 12.510129 -2.698276 -9.533476 0.000000 0.003762 0.215541 3.406767 0.000000 0.000000 -0.000000 0.033765 0.274997 0.595809 0.000380 -0.073212 0.180307 -0.000000 0.000000 14.916399 78.685658 -18.171209 0.298295 0.000132 0.001098 11.766762 31.897479 -38.368560 0.000000 0.033765 0.274996 0.650092 0.000452 -0.079873 -0.180307 0.000000 0.000000 20.921049 -77.714569 25.824949 -0.295075 0.000132 0.001098 12.451267 -32.764441 39.398044 0.000000 -0.000000 0.000000 3.898640 0.000003 -0.000077 0.000000 -0.000000 0.000000 3.898608 -0.000000 0.000000 0.105688 -0.000000 -0.007203 5.831922 4.049106 0.099751 0.022250 0.000000 -0.424548 -1.166300 -3.204247 -0.093610 -4.687364 -5.949980 11.535290 -7.940559 46.686112 35.041271 -0.105688 -0.000000 0.007203 3.067472 2.267148 -0.221281 -0.022137 -0.000000 -0.422396 4.550348 2.303924 -0.329799 -6.934379 6.054634 -10.726732 -21.471412 -50.639958 -43.982429 
0.042672 -0.014119 0.906252 -0.000000 0.000000 1.328318 0.000000 0.000000 -0.000000 -9.099656 4.074147 0.540201 9.999896 -0.043285 -0.352431 -0.000000 0.033765 0.274997 12.518576 -2.659327 -9.508685 -0.000000 0.003762 0.215541 3.575251 -0.000001 -0.000000 -0.000000 0.033765 0.274996 0.603704 0.000391 -0.074107 0.180307 -0.000000 0.000000 14.372648 78.770331 -17.488319 0.298295 0.000132 0.001098 11.789417 31.923983 -38.407284 -0.000000 0.033765 0.274996 0.658027 0.000465 -0.080810 -0.180307 0.000000 -0.000000 20.953900 -77.659736 25.889224 -0.295075 0.000132 0.001098 12.456051 -32.785277 39.386737 0.000000 0.000000 -0.000000 3.863775 -0.000001 0.000020 0.000000 0.000000 -0.000000 3.863809 -0.000000 0.000000 0.105692 -0.000000 -0.007138 5.869772 4.084777 0.098567 0.022250 -0.000000 -0.424548 -1.195490 -3.232865 -0.096250 -4.626273 -5.984452 11.635568 -7.938512 46.676820 35.024360 -0.105692 -0.000000 0.007138 3.057056 2.290975 -0.221161 -0.022137 0.000000 -0.422396 4.543711 2.253820 -0.327338 -6.991904 6.039890 -10.672424 -21.284913 -50.535415 -43.892046 
